<svg width="29" height="28" viewBox="0 0 29 28" fill="none" xmlns="http://www.w3.org/2000/svg">
<mask id="mask0_1137_14620" style="mask-type:alpha" maskUnits="userSpaceOnUse" x="0" y="0" width="29" height="28">
<rect width="29" height="28" fill="#C4C4C4"/>
</mask>
<g mask="url(#mask0_1137_14620)">
</g>
<path d="M23.7106 5.65451C23.7106 5.65451 25.6531 4.89701 25.4906 6.73651C25.4371 7.49401 24.9516 10.1455 24.5736 13.013L23.2786 21.508C23.2786 21.508 23.1706 22.7525 22.1991 22.969C21.2281 23.185 19.7711 22.2115 19.5011 21.995C19.2851 21.8325 15.4541 19.3975 14.1051 18.2075C13.7271 17.8825 13.2951 17.2335 14.1591 16.476L19.8246 11.065C20.4721 10.416 21.1196 8.90101 18.4216 10.7405L10.8666 15.8805C10.8666 15.8805 10.0031 16.422 8.38465 15.935L4.87665 14.8525C4.87665 14.8525 3.58165 14.041 5.79415 13.2295C11.1906 10.6865 17.8281 8.08951 23.7096 5.65451H23.7106Z" fill="#5D6588"/>
</svg>
