<svg width="24" height="24" viewBox="0 0 24 24" fill="none" xmlns="http://www.w3.org/2000/svg">
<path d="M23.6435 4.93695C22.8085 5.30695 21.9115 5.55696 20.9685 5.66996C21.9415 5.08775 22.6694 4.17142 23.0165 3.09195C22.1023 3.63494 21.1018 4.01715 20.0585 4.22196C19.3569 3.47282 18.4276 2.97628 17.4148 2.80943C16.4021 2.64258 15.3626 2.81475 14.4577 3.29921C13.5529 3.78367 12.8333 4.55332 12.4107 5.48866C11.988 6.424 11.886 7.4727 12.1205 8.47195C10.2682 8.37895 8.45613 7.8975 6.80192 7.05886C5.14772 6.22022 3.68834 5.04312 2.5185 3.60396C2.1185 4.29396 1.8885 5.09396 1.8885 5.94596C1.88805 6.71295 2.07693 7.4682 2.43838 8.14469C2.79982 8.82118 3.32266 9.39799 3.9605 9.82396C3.22078 9.80042 2.49737 9.60054 1.8505 9.24095V9.30095C1.85043 10.3767 2.22253 11.4193 2.90368 12.252C3.58483 13.0846 4.53307 13.6559 5.5875 13.869C4.90128 14.0547 4.18184 14.082 3.4835 13.949C3.781 14.8746 4.3605 15.684 5.14087 16.2639C5.92124 16.8438 6.86342 17.1651 7.8355 17.183C6.18533 18.4784 4.14739 19.181 2.0495 19.178C1.67788 19.1781 1.30658 19.1564 0.9375 19.113C3.06698 20.4821 5.54584 21.2088 8.0775 21.206C16.6475 21.206 21.3325 14.108 21.3325 7.95195C21.3325 7.75195 21.3275 7.54995 21.3185 7.34995C22.2298 6.69093 23.0164 5.87485 23.6415 4.93995L23.6435 4.93695V4.93695Z" fill="#5D6588"/>
</svg>
