<svg width="29" height="28" viewBox="0 0 29 28" fill="none" xmlns="http://www.w3.org/2000/svg">
<mask id="mask0_1137_14617" style="mask-type:alpha" maskUnits="userSpaceOnUse" x="0" y="0" width="29" height="28">
<rect width="29" height="28" fill="#C4C4C4"/>
</mask>
<g mask="url(#mask0_1137_14617)">
</g>
<path d="M25.52 8.49936C25.389 8.01538 25.1323 7.57402 24.7756 7.21945C24.4188 6.86488 23.9744 6.60954 23.4869 6.47898C21.6926 6 14.5 6 14.5 6C14.5 6 7.30737 6 5.51306 6.47643C5.02539 6.60657 4.5808 6.86177 4.22394 7.21641C3.86709 7.57104 3.61052 8.01263 3.48002 8.49682C3 10.2803 3 14 3 14C3 14 3 17.7197 3.48002 19.5006C3.74442 20.4841 4.52478 21.2586 5.51306 21.521C7.30737 22 14.5 22 14.5 22C14.5 22 21.6926 22 23.4869 21.521C24.4778 21.2586 25.2556 20.4841 25.52 19.5006C26 17.7197 26 14 26 14C26 14 26 10.2803 25.52 8.49936ZM12.2154 17.414V10.586L18.1708 13.9745L12.2154 17.414Z" fill="#5D6588"/>
</svg>
